Cover:
  
http://imageshack.us/photo/my-images/31/coversgf.jpg

Release Title: Harry Potter And The Prisoner Of Azkaban 2004 BRRip 1080p x264 AAC - honchorella (Kingdom Release)

Storyline: It's Harry's third year at Hogwarts; not only does he have a new "Defense Against the Dark Arts" teacher, but there is also trouble brewing. Convicted murderer Sirius Black has escaped the Wizards' Prison and is coming after Harry. 

Cast
Daniel Radcliffe	... 	Harry Potter
Richard Griffiths	... 	Uncle Vernon
Pam Ferris	... 	Aunt Marge
Fiona Shaw	... 	Aunt Petunia
Harry Melling	... 	Dudley Dursley
Adrian Rawlins	... 	James Potter
Geraldine Somerville	... 	Lily Potter
Lee Ingleby	... 	Stan Shunpike
Lenny Henry	... 	Shrunken Head

Genre: Adventure | Family | Fantasy | Mystery
Language: English | Hindi
Runtime: 2h 15min
Total Size: 3.42 gb
Source: FraMeSToR 1080p ;)
Encoder: meguil

Video Specs
Container: mkv
Format Profile: High@L4.0
Min Bitrate: 3000 kbps
Max Bitrate: 25 Mbps
Encoding: 2 Pass
Resolution: 1920 x 800
Display Aspect Ratio: 2.40:1
Quality Factor (QF): 0.081
Frame Rate: 23.976 fps
Stream size: 2.97 GiB (87%)

English Audio Specs
Subtitles: Yes
Audio Codec: AAC/LC
Bitrate: 336 Kbps
Sample Rate: 48.0 KHz
Channel Count: 6
Channel Positions: Front: L C R, Side L R, LFE
Stream size: 322 MiB (9%)

Hindi Audio Specs
Subtitles: No
Audio Codec: MP3
Bitrate: 160 Kbps
Sample Rate: 48.0 KHz
Channel Count: 2
Channel Positions: Front L R
Stream size: 156 MiB (4%)

IMDB  
http://www.imdb.com/title/tt0304141/

Screens:
  
http://img62.imageshack.us/img62/4139/27204987.jpg
 
http://img847.imageshack.us/img847/2200/72189601.jpg
 
http://img51.imageshack.us/img51/4330/61096340.jpg
 
http://img813.imageshack.us/img813/2973/47886834.jpg
 
http://img94.imageshack.us/img94/3361/40143121.jpg
 
http://img13.imageshack.us/img13/4574/20734020.jpg
 
http://img153.imageshack.us/img153/2624/52463205.jpg
 
http://img683.imageshack.us/img683/6844/48520583.jpg
